<svg width="160" height="160" viewBox="0 0 160 160" fill="none" xmlns="http://www.w3.org/2000/svg">
  <rect width="160" height="160" rx="28" fill="url(#bg)"/>
  <ellipse cx="80" cy="130" rx="54" ry="10" fill="#0E1116" fill-opacity="0.32"/>
  <rect x="30" y="52" width="58" height="64" rx="18" fill="#18202A"/>
  <rect x="100" y="58" width="28" height="50" rx="10" fill="#F6E2C6"/>
  <rect x="104" y="46" width="8" height="32" rx="4" fill="#F5C447"/>
  <rect x="112" y="42" width="8" height="36" rx="4" fill="#E3B23C"/>
  <rect x="120" y="48" width="8" height="30" rx="4" fill="#F8CE5E"/>
  <rect x="36" y="84" width="46" height="20" rx="10" fill="#6B351E"/>
  <rect x="38" y="70" width="42" height="14" rx="7" fill="#F4D587"/>
  <rect x="40" y="78" width="38" height="7" rx="3.5" fill="#88B04B"/>
  <rect x="39" y="96" width="40" height="7" rx="3.5" fill="#F0B340"/>
  <path d="M42 69C42 61.8203 47.8203 56 55 56H63C70.1797 56 76 61.8203 76 69V73H42V69Z" fill="#E3A45B"/>
  <circle cx="54" cy="64" r="1.5" fill="#F7E9C0"/>
  <circle cx="62" cy="61" r="1.5" fill="#F7E9C0"/>
  <circle cx="69" cy="65" r="1.5" fill="#F7E9C0"/>
  <defs>
    <linearGradient id="bg" x1="18" y1="14" x2="146" y2="148" gradientUnits="userSpaceOnUse">
      <stop stop-color="#4A2C22"/>
      <stop offset="1" stop-color="#131820"/>
    </linearGradient>
  </defs>
</svg>