<svg width="160" height="160" viewBox="0 0 160 160" fill="none" xmlns="http://www.w3.org/2000/svg">
  <rect width="160" height="160" rx="28" fill="url(#bg)"/>
  <ellipse cx="80" cy="130" rx="52" ry="10" fill="#0E1013" fill-opacity="0.3"/>
  <rect x="44" y="95" width="72" height="14" rx="7" fill="#E2A55E"/>
  <rect x="48" y="84" width="64" height="9" rx="4.5" fill="#F3B439"/>
  <rect x="46" y="74" width="68" height="10" rx="5" fill="#6A341E"/>
  <rect x="48" y="68" width="64" height="7" rx="3.5" fill="#78A54E"/>
  <rect x="46" y="57" width="68" height="10" rx="5" fill="#7B3C22"/>
  <rect x="50" y="46" width="60" height="12" rx="6" fill="#F4D483"/>
  <path d="M50 44C50 34.6112 57.6112 27 67 27H93C102.389 27 110 34.6112 110 44V48H50V44Z" fill="#D99B55"/>
  <circle cx="65" cy="38" r="1.6" fill="#F8E9BF"/>
  <circle cx="78" cy="35" r="1.6" fill="#F8E9BF"/>
  <circle cx="89" cy="39" r="1.6" fill="#F8E9BF"/>
  <defs>
    <linearGradient id="bg" x1="16" y1="18" x2="148" y2="146" gradientUnits="userSpaceOnUse">
      <stop stop-color="#402B22"/>
      <stop offset="1" stop-color="#16191F"/>
    </linearGradient>
  </defs>
</svg>