<svg width="160" height="160" viewBox="0 0 160 160" fill="none" xmlns="http://www.w3.org/2000/svg">
  <rect width="160" height="160" rx="28" fill="url(#bg)"/>
  <ellipse cx="80" cy="126" rx="44" ry="10" fill="#101316" fill-opacity="0.28"/>
  <path d="M48 93C48 72 62 56 80 56C98 56 112 72 112 93C104 102 94 106 80 106C66 106 56 102 48 93Z" fill="#C88231"/>
  <path d="M61 83C61 70 69 61 80 61C91 61 99 70 99 83" stroke="#F2C56E" stroke-width="12" stroke-linecap="round"/>
  <path d="M54 90C54 77 63 67 74 67" stroke="#D89446" stroke-width="10" stroke-linecap="round"/>
  <path d="M106 90C106 77 97 67 86 67" stroke="#D89446" stroke-width="10" stroke-linecap="round"/>
  <defs>
    <linearGradient id="bg" x1="18" y1="14" x2="148" y2="148" gradientUnits="userSpaceOnUse">
      <stop stop-color="#61412A"/>
      <stop offset="1" stop-color="#191A1D"/>
    </linearGradient>
  </defs>
</svg>