<svg width="160" height="160" viewBox="0 0 160 160" fill="none" xmlns="http://www.w3.org/2000/svg">
  <rect width="160" height="160" rx="28" fill="url(#bg)"/>
  <ellipse cx="80" cy="130" rx="48" ry="9" fill="#0F1216" fill-opacity="0.28"/>
  <path d="M36 84C36 65.2223 51.2223 50 70 50H90C108.778 50 124 65.2223 124 84V89C124 104.464 111.464 117 96 117H64C48.536 117 36 104.464 36 89V84Z" fill="#EAE8E1"/>
  <path d="M44 82C44 67.6406 55.6406 56 70 56H90C104.359 56 116 67.6406 116 82V87C116 101.359 104.359 113 90 113H70C55.6406 113 44 101.359 44 87V82Z" fill="#D7A35F"/>
  <path d="M54 74C66 83 94 83 106 74" stroke="#F2DB89" stroke-width="5" stroke-linecap="round"/>
  <circle cx="62" cy="88" r="8" fill="#6A331E"/>
  <circle cx="98" cy="86" r="8" fill="#7E3A21"/>
  <rect x="76" y="81" width="8" height="22" rx="4" fill="#2B6B3D"/>
  <path d="M112 48L97 92" stroke="#D8C5A1" stroke-width="4" stroke-linecap="round"/>
  <path d="M122 52L107 92" stroke="#C9B48E" stroke-width="4" stroke-linecap="round"/>
  <defs>
    <linearGradient id="bg" x1="18" y1="12" x2="144" y2="146" gradientUnits="userSpaceOnUse">
      <stop stop-color="#562B21"/>
      <stop offset="1" stop-color="#181B20"/>
    </linearGradient>
  </defs>
</svg>