<svg width="160" height="160" viewBox="0 0 160 160" fill="none" xmlns="http://www.w3.org/2000/svg">
  <rect width="160" height="160" rx="28" fill="url(#bg)"/>
  <ellipse cx="80" cy="128" rx="46" ry="9" fill="#0E1317" fill-opacity="0.28"/>
  <path d="M40 84C40 68.536 52.536 56 68 56H92C107.464 56 120 68.536 120 84V88C120 103.464 107.464 116 92 116H68C52.536 116 40 103.464 40 88V84Z" fill="#E7E7DD"/>
  <path d="M48 82C48 70.9543 56.9543 62 68 62H92C103.046 62 112 70.9543 112 82V88C112 99.0457 103.046 108 92 108H68C56.9543 108 48 99.0457 48 88V82Z" fill="#7DB267"/>
  <circle cx="66" cy="82" r="10" fill="#A6CD76"/>
  <circle cx="84" cy="88" r="10" fill="#8ABC63"/>
  <circle cx="98" cy="78" r="8" fill="#D3E7A5"/>
  <path d="M60 71C65 68 70 68 75 71" stroke="#5B7A3F" stroke-width="3" stroke-linecap="round"/>
  <defs>
    <linearGradient id="bg" x1="18" y1="12" x2="144" y2="146" gradientUnits="userSpaceOnUse">
      <stop stop-color="#214235"/>
      <stop offset="1" stop-color="#161C21"/>
    </linearGradient>
  </defs>
</svg>