<svg width="160" height="160" viewBox="0 0 160 160" fill="none" xmlns="http://www.w3.org/2000/svg">
  <rect width="160" height="160" rx="28" fill="url(#bg)"/>
  <ellipse cx="80" cy="130" rx="48" ry="9" fill="#101316" fill-opacity="0.28"/>
  <path d="M36 86C36 67.2223 51.2223 52 70 52H90C108.778 52 124 67.2223 124 86V91C124 104.807 112.807 116 99 116H61C47.1929 116 36 104.807 36 91V86Z" fill="#ECEADF"/>
  <path d="M44 84C44 69.6406 55.6406 58 70 58H90C104.359 58 116 69.6406 116 84V88C116 102.359 104.359 114 90 114H70C55.6406 114 44 102.359 44 88V84Z" fill="#8FBE6C"/>
  <circle cx="60" cy="79" r="10" fill="#A6CD76"/>
  <circle cx="80" cy="72" r="11" fill="#D9E79E"/>
  <circle cx="96" cy="83" r="9" fill="#74AA58"/>
  <circle cx="76" cy="90" r="8" fill="#E4C56B"/>
  <defs>
    <linearGradient id="bg" x1="18" y1="12" x2="144" y2="146" gradientUnits="userSpaceOnUse">
      <stop stop-color="#284233"/>
      <stop offset="1" stop-color="#171B22"/>
    </linearGradient>
  </defs>
</svg>